Coordinates
version=1
nRows=31
nColumns=38
inDegrees=no

Units are S.I. units (second, meters, Newtons, ...)
If the header above contains a line with 'inDegrees', this indicates whether rotational values are in degrees (yes) or radians (no).

endheader
time	pelvis_tilt	pelvis_list	pelvis_rotation	pelvis_tx	pelvis_ty	pelvis_tz	hip_flexion_r	hip_adduction_r	hip_rotation_r	knee_angle_r	ankle_angle_r	subtalar_angle_r	mtp_angle_r	hip_flexion_l	hip_adduction_l	hip_rotation_l	knee_angle_l	ankle_angle_l	subtalar_angle_l	mtp_angle_l	lumbar_extension	lumbar_bending	lumbar_rotation	arm_flex_r	arm_add_r	arm_rot_r	elbow_flex_r	pro_sup_r	wrist_flex_r	wrist_dev_r	arm_flex_l	arm_add_l	arm_rot_l	elbow_flex_l	pro_sup_l	wrist_flex_l	wrist_dev_l
1.15	-2.88415	1.46674	-1.94256	0.906502	0.683546	0.944084	-0.0125282	-0.213459	-0.127949	1.01339	-0.376955	0	0	0.140519	0.0793907	-0.371146	0.253908	0.0261731	0	0	-0.201659	-0.0735482	0.237644	0.134421	-0.351834	1.07448	0.397958	0.598021	0	0	0.0228349	-0.237074	0.215842	0.579879	1.51338	0	0
1.16	-2.86464	1.4638	-1.96093	0.905466	0.692899	0.945086	0.0199579	-0.219005	-0.10732	1.05668	-0.410854	0	0	0.12421	0.0864588	-0.367831	0.24781	0.0299109	0	0	-0.203461	-0.0782053	0.233472	0.137581	-0.349809	1.08064	0.399131	0.593335	0	0	0.020241	-0.243579	0.22306	0.590123	1.5008	0	0
1.17	-2.85574	1.46061	-1.96811	0.904355	0.702115	0.946207	0.0490856	-0.222019	-0.0883753	1.09426	-0.425038	0	0	0.107101	0.0925607	-0.364619	0.241386	0.0339773	0	0	-0.206073	-0.081529	0.228268	0.141111	-0.347313	1.08525	0.399644	0.589519	0	0	0.0184689	-0.247696	0.2245	0.595367	1.49335	0	0
1.18	-2.86516	1.45725	-1.95664	0.903215	0.71121	0.947464	0.0763726	-0.221448	-0.0705775	1.12955	-0.417023	0	0	0.0885791	0.0970296	-0.360208	0.233751	0.0377933	0	0	-0.209915	-0.0825592	0.222546	0.145068	-0.345321	1.09233	0.40058	0.588694	0	0	0.0170939	-0.249467	0.221291	0.598875	1.49028	0	0
1.19	-2.88344	1.45485	-1.93642	0.902001	0.720044	0.948695	0.104779	-0.219032	-0.0544143	1.16502	-0.383333	0	0	0.0709515	0.100159	-0.355066	0.225874	0.040358	0	0	-0.21371	-0.0817216	0.217201	0.149318	-0.343944	1.10275	0.40135	0.591193	0	0	0.0176324	-0.24871	0.215009	0.597395	1.49214	0	0
1.2	-2.90787	1.45259	-1.91	0.900695	0.728743	0.949982	0.132253	-0.215006	-0.0392564	1.19727	-0.341758	0	0	0.0535829	0.102269	-0.350746	0.218199	0.0424589	0	0	-0.217717	-0.0796334	0.212011	0.153395	-0.342134	1.10886	0.400774	0.593801	0	0	0.0192618	-0.246009	0.205616	0.593532	1.49919	0	0
1.21	-2.93651	1.4505	-1.8788	0.899386	0.737315	0.951304	0.15793	-0.209648	-0.026822	1.22304	-0.304765	0	0	0.0362431	0.103362	-0.345536	0.210469	0.0450083	0	0	-0.221901	-0.0766362	0.206231	0.157479	-0.339797	1.11	0.399387	0.596052	0	0	0.0211551	-0.242585	0.194123	0.589605	1.50857	0	0
1.22	-2.96557	1.44859	-1.84628	0.898073	0.745803	0.952635	0.181907	-0.203788	-0.0172183	1.24209	-0.276326	0	0	0.0195062	0.10373	-0.342248	0.203332	0.0473684	0	0	-0.22595	-0.073203	0.199722	0.161489	-0.337162	1.10915	0.397574	0.598499	0	0	0.0236201	-0.239313	0.18337	0.584674	1.51699	0	0
1.23	-2.99279	1.44687	-1.81424	0.896671	0.75417	0.953927	0.204174	-0.198099	-0.0104212	1.25555	-0.252915	0	0	0.00349344	0.103884	-0.338302	0.196652	0.0497143	0	0	-0.229854	-0.0694558	0.192071	0.165799	-0.335082	1.10904	0.396468	0.601429	0	0	0.0263151	-0.236753	0.174092	0.580271	1.52669	0	0
1.24	-3.01505	1.44565	-1.7867	0.895229	0.762366	0.955093	0.225678	-0.192939	-0.00532702	1.26422	-0.228337	0	0	-0.0105383	0.103948	-0.332872	0.19205	0.0520236	0	0	-0.233153	-0.065877	0.184205	0.170373	-0.333923	1.10978	0.396611	0.603324	0	0	0.0293516	-0.234903	0.166271	0.576956	1.53504	0	0
1.25	-3.03508	1.44482	-1.76142	0.893828	0.770396	0.956202	0.246256	-0.187672	-0.00139112	1.26826	-0.202173	0	0	-0.0231393	0.103542	-0.326557	0.188862	0.0541636	0	0	-0.23607	-0.0622962	0.176857	0.175119	-0.333552	1.11106	0.397614	0.60381	0	0	0.0330332	-0.233862	0.16126	0.574101	1.53896	0	0
1.26	-3.05434	1.44428	-1.73689	0.892471	0.778348	0.957248	0.265603	-0.183069	3.3995e-05	1.26751	-0.175856	0	0	-0.0348027	0.102494	-0.321675	0.186497	0.056061	0	0	-0.238517	-0.0585395	0.169901	0.179887	-0.333779	1.11222	0.398802	0.604824	0	0	0.0367611	-0.234058	0.160723	0.57194	1.53793	0	0
1.27	-3.0704	1.44313	-1.71522	0.891126	0.786114	0.958284	0.283116	-0.179639	-0.00092771	1.26228	-0.148458	0	0	-0.0461838	0.101525	-0.317717	0.185258	0.0585417	0	0	-0.24179	-0.0553826	0.162995	0.185185	-0.333891	1.11308	0.399012	0.606379	0	0	0.0421273	-0.235009	0.163333	0.56924	1.5344	0	0
1.28	-3.08597	1.44154	-1.69421	0.889826	0.793705	0.959319	0.298971	-0.176279	-0.0029552	1.25266	-0.12256	0	0	-0.0577383	0.100497	-0.314062	0.184052	0.0614315	0	0	-0.245817	-0.0523907	0.156589	0.190969	-0.334405	1.11422	0.399287	0.607521	0	0	0.0482796	-0.236608	0.168634	0.567848	1.52919	0	0
1.29	-3.10349	1.44041	-1.67191	0.888621	0.801266	0.960322	0.313713	-0.172099	-0.00535482	1.23843	-0.100328	0	0	-0.0692492	0.0991313	-0.310186	0.182074	0.0635597	0	0	-0.24926	-0.049034	0.151432	0.196594	-0.335238	1.11579	0.399437	0.608426	0	0	0.054639	-0.238507	0.175398	0.566001	1.52454	0	0
1.3	-3.12205	1.43938	-1.649	0.887458	0.808779	0.961305	0.326983	-0.167826	-0.00899994	1.2196	-0.0812527	0	0	-0.0809355	0.0975192	-0.306789	0.179327	0.0648577	0	0	-0.252471	-0.045433	0.147355	0.20192	-0.336683	1.11718	0.400384	0.608937	0	0	0.0618746	-0.240226	0.183243	0.562851	1.52089	0	0
1.31	3.14057	1.43878	-1.62414	0.886299	0.816248	0.962247	0.339134	-0.163877	-0.0149577	1.19606	-0.0627373	0	0	-0.0922337	0.0955684	-0.302169	0.176292	0.066028	0	0	-0.255098	-0.0412832	0.143764	0.20712	-0.338172	1.11849	0.400993	0.60925	0	0	0.0692777	-0.241443	0.191475	0.559672	1.51653	0	0
1.32	3.11987	1.43821	-1.59958	0.885177	0.823708	0.963162	0.34966	-0.160344	-0.0226205	1.16809	-0.0463548	0	0	-0.103832	0.0935725	-0.296648	0.172637	0.0674717	0	0	-0.25753	-0.0370104	0.140679	0.21231	-0.339475	1.11929	0.401256	0.60987	0	0	0.0758065	-0.242662	0.200698	0.558482	1.5102	0	0
1.33	3.09952	1.4374	-1.5762	0.884153	0.831266	0.964041	0.358335	-0.156678	-0.0309396	1.13617	-0.0308376	0	0	-0.116095	0.0915947	-0.292852	0.168243	0.0693501	0	0	-0.259898	-0.0328499	0.138537	0.217239	-0.340808	1.12039	0.401476	0.611063	0	0	0.0813878	-0.24359	0.209459	0.559436	1.50156	0	0
1.34	3.08037	1.43642	-1.55441	0.883151	0.838868	0.964839	0.365114	-0.153775	-0.0417765	1.10009	-0.0138778	0	0	-0.128683	0.0898654	-0.290726	0.162798	0.0713945	0	0	-0.262366	-0.0289141	0.137403	0.222165	-0.342704	1.12435	0.402148	0.611089	0	0	0.0868897	-0.244298	0.220031	0.561146	1.48911	0	0
1.35	3.06227	1.43538	-1.53336	0.882151	0.84643	0.965593	0.36943	-0.151074	-0.0546853	1.05962	-0.00144283	0	0	-0.141127	0.0880943	-0.287369	0.157804	0.0723933	0	0	-0.264947	-0.0249654	0.135953	0.227139	-0.343903	1.12795	0.40153	0.609611	0	0	0.0927723	-0.243913	0.227233	0.559388	1.47997	0	0
1.36	3.04573	1.43324	-1.51372	0.88122	0.853965	0.966402	0.370181	-0.148295	-0.0694381	1.01482	0.00818239	0	0	-0.154652	0.0860344	-0.283647	0.153815	0.0723873	0	0	-0.268911	-0.0212557	0.134386	0.232082	-0.344996	1.13084	0.401276	0.60764	0	0	0.0989986	-0.242563	0.231243	0.557033	1.47457	0	0
1.37	3.03278	1.43056	-1.49782	0.880365	0.861519	0.967193	0.36833	-0.145571	-0.0854896	0.966974	0.0157087	0	0	-0.168659	0.0840417	-0.279724	0.150753	0.0716377	0	0	-0.273555	-0.0181748	0.13307	0.236784	-0.345783	1.13348	0.400772	0.605795	0	0	0.105606	-0.240555	0.233644	0.55302	1.4726	0	0
1.38	3.01847	1.42789	-1.48036	0.879571	0.869137	0.967837	0.364339	-0.142293	-0.103838	0.915819	0.0221614	0	0	-0.183242	0.0817099	-0.27441	0.146011	0.0723246	0	0	-0.278083	-0.0149135	0.131867	0.240955	-0.34642	1.13555	0.400318	0.603943	0	0	0.111955	-0.23829	0.235438	0.549379	1.47209	0	0
1.39	3.0043	1.42506	-1.46301	0.878834	0.876812	0.968326	0.358181	-0.1386	-0.124715	0.861365	0.0271578	0	0	-0.198315	0.079378	-0.269288	0.140266	0.0735122	0	0	-0.28266	-0.0116338	0.130838	0.244559	-0.346709	1.13633	0.399372	0.602392	0	0	0.118445	-0.235595	0.23571	0.545787	1.47191	0	0
1.4	2.991	1.42193	-1.44527	0.878103	0.884395	0.968697	0.349803	-0.134932	-0.149313	0.80414	0.0296032	0	0	-0.212805	0.0764266	-0.263682	0.136155	0.0758202	0	0	-0.287881	-0.00831763	0.128819	0.248031	-0.34704	1.13542	0.399072	0.601908	0	0	0.125587	-0.233206	0.235624	0.541739	1.47451	0	0
1.41	2.98049	1.4194	-1.43152	0.877615	0.892095	0.968863	0.340824	-0.130152	-0.173068	0.7449	0.0292222	0	0	-0.226365	0.0737554	-0.260917	0.132984	0.0789762	0	0	-0.292126	-0.00590215	0.127822	0.25104	-0.347096	1.1343	0.398435	0.602046	0	0	0.132631	-0.231385	0.236465	0.53657	1.47737	0	0
1.42	2.97438	1.41983	-1.4245	0.877535	0.899858	0.96856	0.335288	-0.12388	-0.192675	0.685451	0.0284744	0	0	-0.236546	0.0721093	-0.260874	0.130683	0.0826288	0	0	-0.293055	-0.00555002	0.128676	0.253586	-0.346837	1.13376	0.397862	0.602123	0	0	0.138494	-0.230729	0.237891	0.533741	1.47868	0	0
1.43	2.96377	1.42006	-1.41279	0.877608	0.907705	0.968149	0.327732	-0.115284	-0.212973	0.623015	0.0272369	0	0	-0.246619	0.0693349	-0.260903	0.128818	0.0877954	0	0	-0.294057	-0.00456108	0.12941	0.255945	-0.346102	1.13243	0.396696	0.602386	0	0	0.144509	-0.23066	0.240209	0.530033	1.48026	0	0
1.44	2.95158	1.42162	-1.4	0.877853	0.915569	0.967449	0.321468	-0.10526	-0.232667	0.560666	0.0277627	0	0	-0.254825	0.0664662	-0.261094	0.127976	0.0940417	0	0	-0.293644	-0.00376475	0.130408	0.258208	-0.345114	1.13134	0.395241	0.602667	0	0	0.149831	-0.231265	0.243258	0.527873	1.48051	0	0
1.45	2.93861	1.42395	-1.38734	0.878309	0.923473	0.96651	0.315563	-0.0934307	-0.249239	0.497999	0.0306739	0	0	-0.262031	0.0637698	-0.262543	0.127868	0.10023	0	0	-0.292395	-0.0033395	0.131933	0.260458	-0.344028	1.13084	0.393957	0.603062	0	0	0.154216	-0.232423	0.246559	0.52736	1.47922	0	0
